solid OpenSCAD_Model
  facet normal -0.743147 -0.669129 0
    outer loop
      vertex -6.69131 -7.43145 0
      vertex -8.09017 -5.87785 10
      vertex -8.09017 -5.87785 0
    endloop
  endfacet
  facet normal -0.743147 -0.669129 0
    outer loop
      vertex -8.09017 -5.87785 10
      vertex -6.69131 -7.43145 0
      vertex -6.69131 -7.43145 10
    endloop
  endfacet
  facet normal 0.951055 0.309021 0
    outer loop
      vertex 9.78148 2.07912 10
      vertex 9.13545 4.06737 0
      vertex 9.13545 4.06737 10
    endloop
  endfacet
  facet normal 0.951055 0.309021 0
    outer loop
      vertex 9.13545 4.06737 0
      vertex 9.78148 2.07912 10
      vertex 9.78148 2.07912 0
    endloop
  endfacet
  facet normal 0.994522 0.104526 0
    outer loop
      vertex 10 0 10
      vertex 9.78148 2.07912 0
      vertex 9.78148 2.07912 10
    endloop
  endfacet
  facet normal 0.994522 0.104526 0
    outer loop
      vertex 9.78148 2.07912 0
      vertex 10 0 10
      vertex 10 0 0
    endloop
  endfacet
  facet normal 0.866026 0.5 0
    outer loop
      vertex 9.13545 4.06737 10
      vertex 8.09017 5.87785 0
      vertex 8.09017 5.87785 10
    endloop
  endfacet
  facet normal 0.866026 0.5 0
    outer loop
      vertex 8.09017 5.87785 0
      vertex 9.13545 4.06737 10
      vertex 9.13545 4.06737 0
    endloop
  endfacet
  facet normal 0.951055 -0.309021 0
    outer loop
      vertex 9.13545 -4.06737 10
      vertex 9.78148 -2.07912 0
      vertex 9.78148 -2.07912 10
    endloop
  endfacet
  facet normal 0.951055 -0.309021 0
    outer loop
      vertex 9.78148 -2.07912 0
      vertex 9.13545 -4.06737 10
      vertex 9.13545 -4.06737 0
    endloop
  endfacet
  facet normal 0.587783 -0.809019 0
    outer loop
      vertex 5 -8.66025 0
      vertex 6.69131 -7.43145 10
      vertex 5 -8.66025 10
    endloop
  endfacet
  facet normal 0.587783 -0.809019 0
    outer loop
      vertex 6.69131 -7.43145 10
      vertex 5 -8.66025 0
      vertex 6.69131 -7.43145 0
    endloop
  endfacet
  facet normal 0.743147 -0.669129 0
    outer loop
      vertex 6.69131 -7.43145 10
      vertex 8.09017 -5.87785 0
      vertex 8.09017 -5.87785 10
    endloop
  endfacet
  facet normal 0.743147 -0.669129 0
    outer loop
      vertex 8.09017 -5.87785 0
      vertex 6.69131 -7.43145 10
      vertex 6.69131 -7.43145 0
    endloop
  endfacet
  facet normal 0.994522 -0.104526 0
    outer loop
      vertex 9.78148 -2.07912 10
      vertex 10 0 0
      vertex 10 0 10
    endloop
  endfacet
  facet normal 0.994522 -0.104526 0
    outer loop
      vertex 10 0 0
      vertex 9.78148 -2.07912 10
      vertex 9.78148 -2.07912 0
    endloop
  endfacet
  facet normal -0.406736 -0.913546 0
    outer loop
      vertex -5 -8.66025 0
      vertex -3.09017 -9.51056 10
      vertex -5 -8.66025 10
    endloop
  endfacet
  facet normal -0.406736 -0.913546 -0
    outer loop
      vertex -3.09017 -9.51056 10
      vertex -5 -8.66025 0
      vertex -3.09017 -9.51056 0
    endloop
  endfacet
  facet normal 0.406736 0.913546 -0
    outer loop
      vertex 5 8.66025 0
      vertex 3.09017 9.51056 10
      vertex 5 8.66025 10
    endloop
  endfacet
  facet normal 0.406736 0.913546 0
    outer loop
      vertex 3.09017 9.51056 10
      vertex 5 8.66025 0
      vertex 3.09017 9.51056 0
    endloop
  endfacet
  facet normal 0.743147 0.669129 0
    outer loop
      vertex 8.09017 5.87785 10
      vertex 6.69131 7.43145 0
      vertex 6.69131 7.43145 10
    endloop
  endfacet
  facet normal 0.743147 0.669129 0
    outer loop
      vertex 6.69131 7.43145 0
      vertex 8.09017 5.87785 10
      vertex 8.09017 5.87785 0
    endloop
  endfacet
  facet normal -0.587783 -0.809019 0
    outer loop
      vertex -6.69131 -7.43145 0
      vertex -5 -8.66025 10
      vertex -6.69131 -7.43145 10
    endloop
  endfacet
  facet normal -0.587783 -0.809019 -0
    outer loop
      vertex -5 -8.66025 10
      vertex -6.69131 -7.43145 0
      vertex -5 -8.66025 0
    endloop
  endfacet
  facet normal -0.743147 0.669129 0
    outer loop
      vertex -8.09017 5.87785 0
      vertex -6.69131 7.43145 10
      vertex -6.69131 7.43145 0
    endloop
  endfacet
  facet normal -0.743147 0.669129 0
    outer loop
      vertex -6.69131 7.43145 10
      vertex -8.09017 5.87785 0
      vertex -8.09017 5.87785 10
    endloop
  endfacet
  facet normal 0 1 -0
    outer loop
      vertex 1.04528 9.94522 0
      vertex -1.04528 9.94522 10
      vertex 1.04528 9.94522 10
    endloop
  endfacet
  facet normal 0 1 0
    outer loop
      vertex -1.04528 9.94522 10
      vertex 1.04528 9.94522 0
      vertex -1.04528 9.94522 0
    endloop
  endfacet
  facet normal 0.406736 -0.913546 0
    outer loop
      vertex 3.09017 -9.51056 0
      vertex 5 -8.66025 10
      vertex 3.09017 -9.51056 10
    endloop
  endfacet
  facet normal 0.406736 -0.913546 0
    outer loop
      vertex 5 -8.66025 10
      vertex 3.09017 -9.51056 0
      vertex 5 -8.66025 0
    endloop
  endfacet
  facet normal 0.207914 -0.978147 0
    outer loop
      vertex 1.04528 -9.94522 0
      vertex 3.09017 -9.51056 10
      vertex 1.04528 -9.94522 10
    endloop
  endfacet
  facet normal 0.207914 -0.978147 0
    outer loop
      vertex 3.09017 -9.51056 10
      vertex 1.04528 -9.94522 0
      vertex 3.09017 -9.51056 0
    endloop
  endfacet
  facet normal -0.951055 0.309021 0
    outer loop
      vertex -9.78148 2.07912 0
      vertex -9.13545 4.06737 10
      vertex -9.13545 4.06737 0
    endloop
  endfacet
  facet normal -0.951055 0.309021 0
    outer loop
      vertex -9.13545 4.06737 10
      vertex -9.78148 2.07912 0
      vertex -9.78148 2.07912 10
    endloop
  endfacet
  facet normal 0 0 -1
    outer loop
      vertex 2 0 0
      vertex 10 0 0
      vertex 9.78148 -2.07912 0
    endloop
  endfacet
  facet normal 0 0 -1
    outer loop
      vertex 2 0 0
      vertex 9.78148 -2.07912 0
      vertex 9.13545 -4.06737 0
    endloop
  endfacet
  facet normal 0 0 -1
    outer loop
      vertex 10 0 0
      vertex 2 0 0
      vertex 9.78148 2.07912 0
    endloop
  endfacet
  facet normal 0 0 -1
    outer loop
      vertex 1.24698 -1.56366 0
      vertex 9.13545 -4.06737 0
      vertex 8.09017 -5.87785 0
    endloop
  endfacet
  facet normal -0 0 -1
    outer loop
      vertex 9.78148 2.07912 0
      vertex 2 0 0
      vertex 9.13545 4.06737 0
    endloop
  endfacet
  facet normal 0 0 -1
    outer loop
      vertex 1.24698 -1.56366 0
      vertex 8.09017 -5.87785 0
      vertex 6.69131 -7.43145 0
    endloop
  endfacet
  facet normal 0 0 -1
    outer loop
      vertex 1.24698 1.56366 0
      vertex 9.13545 4.06737 0
      vertex 2 0 0
    endloop
  endfacet
  facet normal 0 0 -1
    outer loop
      vertex 1.24698 -1.56366 0
      vertex 6.69131 -7.43145 0
      vertex 5 -8.66025 0
    endloop
  endfacet
  facet normal -0 0 -1
    outer loop
      vertex 9.13545 4.06737 0
      vertex 1.24698 1.56366 0
      vertex 8.09017 5.87785 0
    endloop
  endfacet
  facet normal 0 0 -1
    outer loop
      vertex 1.24698 -1.56366 0
      vertex 5 -8.66025 0
      vertex 3.09017 -9.51056 0
    endloop
  endfacet
  facet normal -0 0 -1
    outer loop
      vertex 8.09017 5.87785 0
      vertex 1.24698 1.56366 0
      vertex 6.69131 7.43145 0
    endloop
  endfacet
  facet normal -0 0 -1
    outer loop
      vertex 6.69131 7.43145 0
      vertex 1.24698 1.56366 0
      vertex 5 8.66025 0
    endloop
  endfacet
  facet normal 0 0 -1
    outer loop
      vertex 9.13545 -4.06737 0
      vertex 1.24698 -1.56366 0
      vertex 2 0 0
    endloop
  endfacet
  facet normal 0 0 -1
    outer loop
      vertex -0.445042 -1.94986 0
      vertex 3.09017 -9.51056 0
      vertex 1.04528 -9.94522 0
    endloop
  endfacet
  facet normal 0 0 -1
    outer loop
      vertex 3.09017 -9.51056 0
      vertex -0.445042 -1.94986 0
      vertex 1.24698 -1.56366 0
    endloop
  endfacet
  facet normal 0 0 -1
    outer loop
      vertex -1.04528 -9.94522 0
      vertex -0.445042 -1.94986 0
      vertex 1.04528 -9.94522 0
    endloop
  endfacet
  facet normal 0 0 -1
    outer loop
      vertex -3.09017 -9.51056 0
      vertex -0.445042 -1.94986 0
      vertex -1.04528 -9.94522 0
    endloop
  endfacet
  facet normal 0 0 -1
    outer loop
      vertex -6.69131 -7.43145 0
      vertex -0.445042 -1.94986 0
      vertex -5 -8.66025 0
    endloop
  endfacet
  facet normal 0 0 -1
    outer loop
      vertex -5 -8.66025 0
      vertex -0.445042 -1.94986 0
      vertex -3.09017 -9.51056 0
    endloop
  endfacet
  facet normal -0 0 -1
    outer loop
      vertex 5 8.66025 0
      vertex 1.24698 1.56366 0
      vertex 3.09017 9.51056 0
    endloop
  endfacet
  facet normal 0 0 -1
    outer loop
      vertex -0.445042 1.94986 0
      vertex 3.09017 9.51056 0
      vertex 1.24698 1.56366 0
    endloop
  endfacet
  facet normal -0 0 -1
    outer loop
      vertex 3.09017 9.51056 0
      vertex -0.445042 1.94986 0
      vertex 1.04528 9.94522 0
    endloop
  endfacet
  facet normal 0 0 -1
    outer loop
      vertex -0.445042 1.94986 0
      vertex -1.04528 9.94522 0
      vertex 1.04528 9.94522 0
    endloop
  endfacet
  facet normal 0 0 -1
    outer loop
      vertex -6.69131 7.43145 0
      vertex -0.445042 1.94986 0
      vertex -1.80194 0.867767 0
    endloop
  endfacet
  facet normal -0 0 -1
    outer loop
      vertex -0.445042 -1.94986 0
      vertex -6.69131 -7.43145 0
      vertex -1.80194 -0.867767 0
    endloop
  endfacet
  facet normal 0 0 -1
    outer loop
      vertex -0.445042 1.94986 0
      vertex -3.09017 9.51056 0
      vertex -1.04528 9.94522 0
    endloop
  endfacet
  facet normal 0 0 -1
    outer loop
      vertex -8.09017 -5.87785 0
      vertex -1.80194 -0.867767 0
      vertex -6.69131 -7.43145 0
    endloop
  endfacet
  facet normal 0 0 -1
    outer loop
      vertex -0.445042 1.94986 0
      vertex -5 8.66025 0
      vertex -3.09017 9.51056 0
    endloop
  endfacet
  facet normal 0 0 -1
    outer loop
      vertex -9.13545 -4.06737 0
      vertex -1.80194 -0.867767 0
      vertex -8.09017 -5.87785 0
    endloop
  endfacet
  facet normal 0 0 -1
    outer loop
      vertex -0.445042 1.94986 0
      vertex -6.69131 7.43145 0
      vertex -5 8.66025 0
    endloop
  endfacet
  facet normal 0 0 -1
    outer loop
      vertex -9.78148 -2.07912 0
      vertex -1.80194 -0.867767 0
      vertex -9.13545 -4.06737 0
    endloop
  endfacet
  facet normal 0 0 -1
    outer loop
      vertex -1.80194 0.867767 0
      vertex -8.09017 5.87785 0
      vertex -6.69131 7.43145 0
    endloop
  endfacet
  facet normal 0 0 -1
    outer loop
      vertex -10 0 0
      vertex -1.80194 -0.867767 0
      vertex -9.78148 -2.07912 0
    endloop
  endfacet
  facet normal 0 0 -1
    outer loop
      vertex -1.80194 0.867767 0
      vertex -9.13545 4.06737 0
      vertex -8.09017 5.87785 0
    endloop
  endfacet
  facet normal 0 0 -1
    outer loop
      vertex -1.80194 -0.867767 0
      vertex -10 0 0
      vertex -1.80194 0.867767 0
    endloop
  endfacet
  facet normal 0 0 -1
    outer loop
      vertex -1.80194 0.867767 0
      vertex -9.78148 2.07912 0
      vertex -9.13545 4.06737 0
    endloop
  endfacet
  facet normal -0 0 -1
    outer loop
      vertex -1.80194 0.867767 0
      vertex -10 0 0
      vertex -9.78148 2.07912 0
    endloop
  endfacet
  facet normal -0.951055 -0.309021 0
    outer loop
      vertex -9.13545 -4.06737 0
      vertex -9.78148 -2.07912 10
      vertex -9.78148 -2.07912 0
    endloop
  endfacet
  facet normal -0.951055 -0.309021 0
    outer loop
      vertex -9.78148 -2.07912 10
      vertex -9.13545 -4.06737 0
      vertex -9.13545 -4.06737 10
    endloop
  endfacet
  facet normal -0.406736 0.913546 0
    outer loop
      vertex -3.09017 9.51056 0
      vertex -5 8.66025 10
      vertex -3.09017 9.51056 10
    endloop
  endfacet
  facet normal -0.406736 0.913546 0
    outer loop
      vertex -5 8.66025 10
      vertex -3.09017 9.51056 0
      vertex -5 8.66025 0
    endloop
  endfacet
  facet normal 0 0 1
    outer loop
      vertex 2 0 10
      vertex 10 0 10
      vertex 9.78148 2.07912 10
    endloop
  endfacet
  facet normal 0 0 1
    outer loop
      vertex 2 0 10
      vertex 9.78148 2.07912 10
      vertex 9.13545 4.06737 10
    endloop
  endfacet
  facet normal 0 0 1
    outer loop
      vertex 10 0 10
      vertex 2 0 10
      vertex 9.78148 -2.07912 10
    endloop
  endfacet
  facet normal 0 0 1
    outer loop
      vertex 1.24698 1.56366 10
      vertex 9.13545 4.06737 10
      vertex 8.09017 5.87785 10
    endloop
  endfacet
  facet normal 0 0 1
    outer loop
      vertex 9.78148 -2.07912 10
      vertex 2 0 10
      vertex 9.13545 -4.06737 10
    endloop
  endfacet
  facet normal 0 0 1
    outer loop
      vertex 1.24698 1.56366 10
      vertex 8.09017 5.87785 10
      vertex 6.69131 7.43145 10
    endloop
  endfacet
  facet normal -0 0 1
    outer loop
      vertex 1.24698 -1.56366 10
      vertex 9.13545 -4.06737 10
      vertex 2 0 10
    endloop
  endfacet
  facet normal 0 0 1
    outer loop
      vertex 1.24698 1.56366 10
      vertex 6.69131 7.43145 10
      vertex 5 8.66025 10
    endloop
  endfacet
  facet normal 0 0 1
    outer loop
      vertex 9.13545 -4.06737 10
      vertex 1.24698 -1.56366 10
      vertex 8.09017 -5.87785 10
    endloop
  endfacet
  facet normal 0 0 1
    outer loop
      vertex 1.24698 1.56366 10
      vertex 5 8.66025 10
      vertex 3.09017 9.51056 10
    endloop
  endfacet
  facet normal 0 0 1
    outer loop
      vertex 8.09017 -5.87785 10
      vertex 1.24698 -1.56366 10
      vertex 6.69131 -7.43145 10
    endloop
  endfacet
  facet normal 0 0 1
    outer loop
      vertex 6.69131 -7.43145 10
      vertex 1.24698 -1.56366 10
      vertex 5 -8.66025 10
    endloop
  endfacet
  facet normal 0 0 1
    outer loop
      vertex 9.13545 4.06737 10
      vertex 1.24698 1.56366 10
      vertex 2 0 10
    endloop
  endfacet
  facet normal 0 0 1
    outer loop
      vertex -0.445042 1.94986 10
      vertex 3.09017 9.51056 10
      vertex 1.04528 9.94522 10
    endloop
  endfacet
  facet normal 0 0 1
    outer loop
      vertex 3.09017 9.51056 10
      vertex -0.445042 1.94986 10
      vertex 1.24698 1.56366 10
    endloop
  endfacet
  facet normal -0 0 1
    outer loop
      vertex -1.04528 9.94522 10
      vertex -0.445042 1.94986 10
      vertex 1.04528 9.94522 10
    endloop
  endfacet
  facet normal -0 0 1
    outer loop
      vertex -3.09017 9.51056 10
      vertex -0.445042 1.94986 10
      vertex -1.04528 9.94522 10
    endloop
  endfacet
  facet normal -0 0 1
    outer loop
      vertex -6.69131 7.43145 10
      vertex -0.445042 1.94986 10
      vertex -5 8.66025 10
    endloop
  endfacet
  facet normal -0 0 1
    outer loop
      vertex -5 8.66025 10
      vertex -0.445042 1.94986 10
      vertex -3.09017 9.51056 10
    endloop
  endfacet
  facet normal 0 0 1
    outer loop
      vertex 5 -8.66025 10
      vertex 1.24698 -1.56366 10
      vertex 3.09017 -9.51056 10
    endloop
  endfacet
  facet normal -0 0 1
    outer loop
      vertex -0.445042 -1.94986 10
      vertex 3.09017 -9.51056 10
      vertex 1.24698 -1.56366 10
    endloop
  endfacet
  facet normal 0 0 1
    outer loop
      vertex 3.09017 -9.51056 10
      vertex -0.445042 -1.94986 10
      vertex 1.04528 -9.94522 10
    endloop
  endfacet
  facet normal 0 0 1
    outer loop
      vertex -0.445042 -1.94986 10
      vertex -1.04528 -9.94522 10
      vertex 1.04528 -9.94522 10
    endloop
  endfacet
  facet normal 0 0 1
    outer loop
      vertex -6.69131 -7.43145 10
      vertex -0.445042 -1.94986 10
      vertex -1.80194 -0.867767 10
    endloop
  endfacet
  facet normal 0 0 1
    outer loop
      vertex -0.445042 1.94986 10
      vertex -6.69131 7.43145 10
      vertex -1.80194 0.867767 10
    endloop
  endfacet
  facet normal 0 0 1
    outer loop
      vertex -0.445042 -1.94986 10
      vertex -3.09017 -9.51056 10
      vertex -1.04528 -9.94522 10
    endloop
  endfacet
  facet normal -0 0 1
    outer loop
      vertex -8.09017 5.87785 10
      vertex -1.80194 0.867767 10
      vertex -6.69131 7.43145 10
    endloop
  endfacet
  facet normal 0 0 1
    outer loop
      vertex -0.445042 -1.94986 10
      vertex -5 -8.66025 10
      vertex -3.09017 -9.51056 10
    endloop
  endfacet
  facet normal -0 0 1
    outer loop
      vertex -9.13545 4.06737 10
      vertex -1.80194 0.867767 10
      vertex -8.09017 5.87785 10
    endloop
  endfacet
  facet normal 0 0 1
    outer loop
      vertex -0.445042 -1.94986 10
      vertex -6.69131 -7.43145 10
      vertex -5 -8.66025 10
    endloop
  endfacet
  facet normal -0 0 1
    outer loop
      vertex -9.78148 2.07912 10
      vertex -1.80194 0.867767 10
      vertex -9.13545 4.06737 10
    endloop
  endfacet
  facet normal 0 0 1
    outer loop
      vertex -1.80194 -0.867767 10
      vertex -8.09017 -5.87785 10
      vertex -6.69131 -7.43145 10
    endloop
  endfacet
  facet normal 0 0 1
    outer loop
      vertex -10 0 10
      vertex -1.80194 0.867767 10
      vertex -9.78148 2.07912 10
    endloop
  endfacet
  facet normal 0 0 1
    outer loop
      vertex -1.80194 -0.867767 10
      vertex -9.13545 -4.06737 10
      vertex -8.09017 -5.87785 10
    endloop
  endfacet
  facet normal 0 0 1
    outer loop
      vertex -1.80194 0.867767 10
      vertex -10 0 10
      vertex -1.80194 -0.867767 10
    endloop
  endfacet
  facet normal 0 0 1
    outer loop
      vertex -1.80194 -0.867767 10
      vertex -9.78148 -2.07912 10
      vertex -9.13545 -4.06737 10
    endloop
  endfacet
  facet normal 0 0 1
    outer loop
      vertex -1.80194 -0.867767 10
      vertex -10 0 10
      vertex -9.78148 -2.07912 10
    endloop
  endfacet
  facet normal -0.207914 -0.978147 0
    outer loop
      vertex -3.09017 -9.51056 0
      vertex -1.04528 -9.94522 10
      vertex -3.09017 -9.51056 10
    endloop
  endfacet
  facet normal -0.207914 -0.978147 -0
    outer loop
      vertex -1.04528 -9.94522 10
      vertex -3.09017 -9.51056 0
      vertex -1.04528 -9.94522 0
    endloop
  endfacet
  facet normal 0.207914 0.978147 -0
    outer loop
      vertex 3.09017 9.51056 0
      vertex 1.04528 9.94522 10
      vertex 3.09017 9.51056 10
    endloop
  endfacet
  facet normal 0.207914 0.978147 0
    outer loop
      vertex 1.04528 9.94522 10
      vertex 3.09017 9.51056 0
      vertex 1.04528 9.94522 0
    endloop
  endfacet
  facet normal -0.994522 -0.104526 0
    outer loop
      vertex -9.78148 -2.07912 0
      vertex -10 0 10
      vertex -10 0 0
    endloop
  endfacet
  facet normal -0.994522 -0.104526 0
    outer loop
      vertex -10 0 10
      vertex -9.78148 -2.07912 0
      vertex -9.78148 -2.07912 10
    endloop
  endfacet
  facet normal -0.994522 0.104526 0
    outer loop
      vertex -10 0 0
      vertex -9.78148 2.07912 10
      vertex -9.78148 2.07912 0
    endloop
  endfacet
  facet normal -0.994522 0.104526 0
    outer loop
      vertex -9.78148 2.07912 10
      vertex -10 0 0
      vertex -10 0 10
    endloop
  endfacet
  facet normal -0.866026 -0.5 0
    outer loop
      vertex -8.09017 -5.87785 0
      vertex -9.13545 -4.06737 10
      vertex -9.13545 -4.06737 0
    endloop
  endfacet
  facet normal -0.866026 -0.5 0
    outer loop
      vertex -9.13545 -4.06737 10
      vertex -8.09017 -5.87785 0
      vertex -8.09017 -5.87785 10
    endloop
  endfacet
  facet normal -0.866026 0.5 0
    outer loop
      vertex -9.13545 4.06737 0
      vertex -8.09017 5.87785 10
      vertex -8.09017 5.87785 0
    endloop
  endfacet
  facet normal -0.866026 0.5 0
    outer loop
      vertex -8.09017 5.87785 10
      vertex -9.13545 4.06737 0
      vertex -9.13545 4.06737 10
    endloop
  endfacet
  facet normal 0.866026 -0.5 0
    outer loop
      vertex 8.09017 -5.87785 10
      vertex 9.13545 -4.06737 0
      vertex 9.13545 -4.06737 10
    endloop
  endfacet
  facet normal 0.866026 -0.5 0
    outer loop
      vertex 9.13545 -4.06737 0
      vertex 8.09017 -5.87785 10
      vertex 8.09017 -5.87785 0
    endloop
  endfacet
  facet normal 0.587783 0.809019 -0
    outer loop
      vertex 6.69131 7.43145 0
      vertex 5 8.66025 10
      vertex 6.69131 7.43145 10
    endloop
  endfacet
  facet normal 0.587783 0.809019 0
    outer loop
      vertex 5 8.66025 10
      vertex 6.69131 7.43145 0
      vertex 5 8.66025 0
    endloop
  endfacet
  facet normal -0.587783 0.809019 0
    outer loop
      vertex -5 8.66025 0
      vertex -6.69131 7.43145 10
      vertex -5 8.66025 10
    endloop
  endfacet
  facet normal -0.587783 0.809019 0
    outer loop
      vertex -6.69131 7.43145 10
      vertex -5 8.66025 0
      vertex -6.69131 7.43145 0
    endloop
  endfacet
  facet normal -0.207914 0.978147 0
    outer loop
      vertex -1.04528 9.94522 0
      vertex -3.09017 9.51056 10
      vertex -1.04528 9.94522 10
    endloop
  endfacet
  facet normal -0.207914 0.978147 0
    outer loop
      vertex -3.09017 9.51056 10
      vertex -1.04528 9.94522 0
      vertex -3.09017 9.51056 0
    endloop
  endfacet
  facet normal 0 -1 0
    outer loop
      vertex -1.04528 -9.94522 0
      vertex 1.04528 -9.94522 10
      vertex -1.04528 -9.94522 10
    endloop
  endfacet
  facet normal 0 -1 -0
    outer loop
      vertex 1.04528 -9.94522 10
      vertex -1.04528 -9.94522 0
      vertex 1.04528 -9.94522 0
    endloop
  endfacet
  facet normal -0.222525 -0.974927 0
    outer loop
      vertex -0.445042 1.94986 0
      vertex 1.24698 1.56366 10
      vertex -0.445042 1.94986 10
    endloop
  endfacet
  facet normal -0.222525 -0.974927 -0
    outer loop
      vertex 1.24698 1.56366 10
      vertex -0.445042 1.94986 0
      vertex 1.24698 1.56366 0
    endloop
  endfacet
  facet normal -0.900969 -0.433884 0
    outer loop
      vertex 2 0 0
      vertex 1.24698 1.56366 10
      vertex 1.24698 1.56366 0
    endloop
  endfacet
  facet normal -0.900969 -0.433884 0
    outer loop
      vertex 1.24698 1.56366 10
      vertex 2 0 0
      vertex 2 0 10
    endloop
  endfacet
  facet normal -0.900969 0.433884 0
    outer loop
      vertex 1.24698 -1.56366 0
      vertex 2 0 10
      vertex 2 0 0
    endloop
  endfacet
  facet normal -0.900969 0.433884 0
    outer loop
      vertex 2 0 10
      vertex 1.24698 -1.56366 0
      vertex 1.24698 -1.56366 10
    endloop
  endfacet
  facet normal 0.623491 0.781831 -0
    outer loop
      vertex -0.445042 -1.94986 0
      vertex -1.80194 -0.867767 10
      vertex -0.445042 -1.94986 10
    endloop
  endfacet
  facet normal 0.623491 0.781831 0
    outer loop
      vertex -1.80194 -0.867767 10
      vertex -0.445042 -1.94986 0
      vertex -1.80194 -0.867767 0
    endloop
  endfacet
  facet normal -0.222525 0.974927 0
    outer loop
      vertex 1.24698 -1.56366 0
      vertex -0.445042 -1.94986 10
      vertex 1.24698 -1.56366 10
    endloop
  endfacet
  facet normal -0.222525 0.974927 0
    outer loop
      vertex -0.445042 -1.94986 10
      vertex 1.24698 -1.56366 0
      vertex -0.445042 -1.94986 0
    endloop
  endfacet
  facet normal 1 -0 0
    outer loop
      vertex -1.80194 -0.867767 10
      vertex -1.80194 0.867767 0
      vertex -1.80194 0.867767 10
    endloop
  endfacet
  facet normal 1 0 0
    outer loop
      vertex -1.80194 0.867767 0
      vertex -1.80194 -0.867767 10
      vertex -1.80194 -0.867767 0
    endloop
  endfacet
  facet normal 0.623491 -0.781831 0
    outer loop
      vertex -1.80194 0.867767 0
      vertex -0.445042 1.94986 10
      vertex -1.80194 0.867767 10
    endloop
  endfacet
  facet normal 0.623491 -0.781831 0
    outer loop
      vertex -0.445042 1.94986 10
      vertex -1.80194 0.867767 0
      vertex -0.445042 1.94986 0
    endloop
  endfacet
endsolid OpenSCAD_Model
